<svg width="20" height="20" viewBox="0 0 20 20" fill="none" xmlns="http://www.w3.org/2000/svg">
<path fill-rule="evenodd" clip-rule="evenodd" d="M9.99903 0.333344C4.66172 0.333344 0.333252 4.66125 0.333252 10.0003C0.333252 14.2707 3.10279 17.8941 6.94405 19.1729C7.42771 19.2613 7.60395 18.9629 7.60395 18.7065C7.60395 18.4768 7.59564 17.8692 7.59089 17.0627C4.90207 17.6467 4.33475 15.7667 4.33475 15.7667C3.89501 14.6499 3.26124 14.3525 3.26124 14.3525C2.38356 13.7532 3.32771 13.7651 3.32771 13.7651C4.29796 13.8333 4.80831 14.7615 4.80831 14.7615C5.67056 16.2384 7.07105 15.8117 7.62176 15.5643C7.70959 14.94 7.95941 14.5139 8.23536 14.2724C6.08892 14.0279 3.83212 13.1989 3.83212 9.49473C3.83212 8.43901 4.20895 7.57677 4.82729 6.90085C4.7276 6.65636 4.39588 5.67362 4.92224 4.34256C4.92224 4.34256 5.73345 4.08262 7.58021 5.33298C8.35108 5.11876 9.17832 5.01194 10.0002 5.00778C10.8215 5.01194 11.6482 5.11876 12.4202 5.33298C14.2658 4.08262 15.0758 4.34256 15.0758 4.34256C15.6034 5.67362 15.2717 6.65636 15.1726 6.90085C15.7921 7.57677 16.1659 8.43901 16.1659 9.49473C16.1659 13.2084 13.9055 14.0256 11.7526 14.2647C12.0992 14.5632 12.4084 15.1531 12.4084 16.0551C12.4084 17.3469 12.3965 18.3896 12.3965 18.7065C12.3965 18.9652 12.571 19.2661 13.0611 19.1717C16.8994 17.8905 19.6666 14.27 19.6666 10.0003C19.6666 4.66125 15.3381 0.333344 9.99903 0.333344Z" fill="currentColor"/>
</svg>