<svg width="97" height="97" viewBox="0 0 97 97" fill="none" xmlns="http://www.w3.org/2000/svg">
<path d="M16.4413 76.4415C14.2413 76.4415 12.358 75.6582 10.7913 74.0915C9.22462 72.5249 8.44128 70.6415 8.44128 68.4415L8.44128 28.4415C8.44128 26.2415 9.22462 24.3582 10.7913 22.7915C12.358 21.2249 14.2413 20.4415 16.4413 20.4415L80.4413 20.4415C82.6413 20.4415 84.5246 21.2249 86.0913 22.7915C87.658 24.3582 88.4413 26.2415 88.4413 28.4415V68.4415C88.4413 70.6415 87.658 72.5249 86.0913 74.0915C84.5246 75.6582 82.6413 76.4415 80.4413 76.4415H16.4413ZM16.4413 68.4415H80.4413V28.4415H16.4413V68.4415ZM36.4413 64.4415H60.4413C61.5746 64.4415 62.5246 64.0582 63.2913 63.2915C64.058 62.5249 64.4413 61.5749 64.4413 60.4415C64.4413 59.3082 64.058 58.3582 63.2913 57.5915C62.5246 56.8249 61.5746 56.4415 60.4413 56.4415H36.4413C35.308 56.4415 34.358 56.8249 33.5913 57.5915C32.8246 58.3582 32.4413 59.3082 32.4413 60.4415C32.4413 61.5749 32.8246 62.5249 33.5913 63.2915C34.358 64.0582 35.308 64.4415 36.4413 64.4415ZM24.4413 40.4415C25.5746 40.4415 26.5246 40.0582 27.2913 39.2915C28.058 38.5249 28.4413 37.5749 28.4413 36.4415C28.4413 35.3082 28.058 34.3582 27.2913 33.5915C26.5246 32.8249 25.5746 32.4415 24.4413 32.4415C23.308 32.4415 22.358 32.8249 21.5913 33.5915C20.8246 34.3582 20.4413 35.3082 20.4413 36.4415C20.4413 37.5749 20.8246 38.5249 21.5913 39.2915C22.358 40.0582 23.308 40.4415 24.4413 40.4415ZM36.4413 40.4415C37.5746 40.4415 38.5246 40.0582 39.2913 39.2915C40.058 38.5249 40.4413 37.5749 40.4413 36.4415C40.4413 35.3082 40.058 34.3582 39.2913 33.5915C38.5246 32.8249 37.5746 32.4415 36.4413 32.4415C35.308 32.4415 34.358 32.8249 33.5913 33.5915C32.8246 34.3582 32.4413 35.3082 32.4413 36.4415C32.4413 37.5749 32.8246 38.5249 33.5913 39.2915C34.358 40.0582 35.308 40.4415 36.4413 40.4415ZM48.4413 40.4415C49.5746 40.4415 50.5246 40.0582 51.2913 39.2915C52.058 38.5249 52.4413 37.5749 52.4413 36.4415C52.4413 35.3082 52.058 34.3582 51.2913 33.5915C50.5246 32.8249 49.5746 32.4415 48.4413 32.4415C47.308 32.4415 46.358 32.8249 45.5913 33.5915C44.8246 34.3582 44.4413 35.3082 44.4413 36.4415C44.4413 37.5749 44.8246 38.5249 45.5913 39.2915C46.358 40.0582 47.308 40.4415 48.4413 40.4415ZM60.4413 40.4415C61.5746 40.4415 62.5246 40.0582 63.2913 39.2915C64.058 38.5249 64.4413 37.5749 64.4413 36.4415C64.4413 35.3082 64.058 34.3582 63.2913 33.5915C62.5246 32.8249 61.5746 32.4415 60.4413 32.4415C59.308 32.4415 58.358 32.8249 57.5913 33.5915C56.8246 34.3582 56.4413 35.3082 56.4413 36.4415C56.4413 37.5749 56.8246 38.5249 57.5913 39.2915C58.358 40.0582 59.308 40.4415 60.4413 40.4415ZM72.4413 40.4415C73.5746 40.4415 74.5246 40.0582 75.2913 39.2915C76.0579 38.5249 76.4413 37.5749 76.4413 36.4415C76.4413 35.3082 76.0579 34.3582 75.2913 33.5915C74.5246 32.8249 73.5746 32.4415 72.4413 32.4415C71.308 32.4415 70.358 32.8249 69.5913 33.5915C68.8246 34.3582 68.4413 35.3082 68.4413 36.4415C68.4413 37.5749 68.8246 38.5249 69.5913 39.2915C70.358 40.0582 71.308 40.4415 72.4413 40.4415ZM24.4413 52.4415C25.5746 52.4415 26.5246 52.0582 27.2913 51.2915C28.058 50.5249 28.4413 49.5749 28.4413 48.4415C28.4413 47.3082 28.058 46.3582 27.2913 45.5915C26.5246 44.8249 25.5746 44.4415 24.4413 44.4415C23.308 44.4415 22.358 44.8249 21.5913 45.5915C20.8246 46.3582 20.4413 47.3082 20.4413 48.4415C20.4413 49.5749 20.8246 50.5249 21.5913 51.2915C22.358 52.0582 23.308 52.4415 24.4413 52.4415ZM36.4413 52.4415C37.5746 52.4415 38.5246 52.0582 39.2913 51.2915C40.058 50.5249 40.4413 49.5749 40.4413 48.4415C40.4413 47.3082 40.058 46.3582 39.2913 45.5915C38.5246 44.8249 37.5746 44.4415 36.4413 44.4415C35.308 44.4415 34.358 44.8249 33.5913 45.5915C32.8246 46.3582 32.4413 47.3082 32.4413 48.4415C32.4413 49.5749 32.8246 50.5249 33.5913 51.2915C34.358 52.0582 35.308 52.4415 36.4413 52.4415ZM48.4413 52.4415C49.5746 52.4415 50.5246 52.0582 51.2913 51.2915C52.058 50.5249 52.4413 49.5749 52.4413 48.4415C52.4413 47.3082 52.058 46.3582 51.2913 45.5915C50.5246 44.8249 49.5746 44.4415 48.4413 44.4415C47.308 44.4415 46.358 44.8249 45.5913 45.5915C44.8246 46.3582 44.4413 47.3082 44.4413 48.4415C44.4413 49.5749 44.8246 50.5249 45.5913 51.2915C46.358 52.0582 47.308 52.4415 48.4413 52.4415ZM60.4413 52.4415C61.5746 52.4415 62.5246 52.0582 63.2913 51.2915C64.058 50.5249 64.4413 49.5749 64.4413 48.4415C64.4413 47.3082 64.058 46.3582 63.2913 45.5915C62.5246 44.8249 61.5746 44.4415 60.4413 44.4415C59.308 44.4415 58.358 44.8249 57.5913 45.5915C56.8246 46.3582 56.4413 47.3082 56.4413 48.4415C56.4413 49.5749 56.8246 50.5249 57.5913 51.2915C58.358 52.0582 59.308 52.4415 60.4413 52.4415ZM72.4413 52.4415C73.5746 52.4415 74.5246 52.0582 75.2913 51.2915C76.0579 50.5249 76.4413 49.5749 76.4413 48.4415C76.4413 47.3082 76.0579 46.3582 75.2913 45.5915C74.5246 44.8249 73.5746 44.4415 72.4413 44.4415C71.308 44.4415 70.358 44.8249 69.5913 45.5915C68.8246 46.3582 68.4413 47.3082 68.4413 48.4415C68.4413 49.5749 68.8246 50.5249 69.5913 51.2915C70.358 52.0582 71.308 52.4415 72.4413 52.4415Z" fill="white"/>
</svg>
