<svg
    width="134"
    height="107"
    viewBox="0 0 134 107"
    fill="none"
    xmlns="http://www.w3.org/2000/svg"
>
    <path
        d="M69.3049 29.3288C69.4258 26.174 70.7961 18.608 75.3101 13.5818C79.824 8.5557 88.019 12.2394 91.5522 14.7095C95.166 16.9514 103.474 20.4928 107.794 16.7232L111.905 23.0864C109.097 23.6905 102.547 24.7698 98.8067 24.2543C94.1613 23.614 89.8341 20.9856 87.7628 19.7274L87.7234 19.7034C85.6679 18.4549 85.6276 17.2065 82.0407 16.8843C77.8895 16.5114 74.6249 27.4762 74.0204 29.651L69.3049 29.3288Z"
        fill="#FFC266"
    />
    <path
        d="M73.1602 17.0385L77.6665 19.5587L76.4461 21.7376L71.9398 19.2174L73.1602 17.0385Z"
        fill="#D3A663"
    />
    <path
        d="M79.1796 11.5834L82.2169 16.3142L80.1138 17.6625L77.0764 12.9317L79.1796 11.5834Z"
        fill="#D3A663"
    />
    <path
        d="M88.2545 12.4067L86.9568 18.2667L84.2573 17.6697L85.555 11.8098L88.2545 12.4067Z"
        fill="#D3A663"
    />
    <path
        d="M95.3548 16.4223L93.2072 22.0272L90.6252 21.0393L92.7728 15.4344L95.3548 16.4223Z"
        fill="#D3A663"
    />
    <path
        d="M100.805 18.3852L99.6571 24.2762L96.9433 23.7481L98.0914 17.8571L100.805 18.3852Z"
        fill="#D3A663"
    />
    <path
        d="M86.9173 63.1586C86.9173 86.9803 67.5919 106.292 43.7528 106.292C19.9137 106.292 0.588257 86.9803 0.588257 63.1586C0.588257 39.3369 19.9137 20.0256 43.7528 20.0256C67.5919 20.0256 86.9173 39.3369 86.9173 63.1586Z"
        fill="#161616"
    />
    <path
        d="M12.8807 84.705C12.6694 84.3583 12.4657 84.0051 12.2694 83.6456C-14.7949 35.8016 46.1854 13.2814 59.1082 32.6715C15.2882 19.2056 0.630982 62.3322 12.2694 83.6456C12.4684 83.9974 12.6721 84.3505 12.8807 84.705Z"
        fill="#D9D9D9"
    />
    <path
        d="M57.2053 13.58C58.1563 12.291 59.9729 12.0163 61.2629 12.9666L84.6204 30.1727C85.9104 31.123 86.1852 32.9383 85.2342 34.2274L79.399 42.1372L51.3701 21.4898L57.2053 13.58Z"
        fill="#161616"
    />
    <path
        d="M108.318 12.2125L96.6707 12.6958L105.658 19.8242L99.0889 29.0872L110.616 25.7847L113.759 37.2224L118.072 26.2277L129.115 30.8592L123.23 20.5492L133.588 14.9109L121.941 13.1791L124.198 1.2984L115.371 9.39339L107.633 0.291565L108.318 12.2125Z"
        fill="#FFFF00"
    />
    <path
        d="M111.754 15.2551L105.981 15.4944L110.435 19.0236L107.179 23.6096L112.892 21.9746L114.45 27.6373L116.588 22.1939L122.061 24.4869L119.145 19.3825L124.278 16.591L118.505 15.7336L119.624 9.85159L115.249 13.8594L111.414 9.35312L111.754 15.2551Z"
        fill="#FF0000"
    />
</svg>
