<svg
    width="523"
    height="124"
    viewBox="0 0 523 124"
    fill="none"
    xmlns="http://www.w3.org/2000/svg"
>
    <path
        d="M47.1483 41.04C47.1483 41.936 46.8443 42.592 46.2363 43.008C45.6283 43.424 44.8283 43.648 43.8363 43.68C42.7163 43.68 41.4363 43.232 39.9963 42.336C38.5883 41.472 37.1003 40.304 35.5323 38.832C33.9643 37.36 32.4283 35.728 30.9243 33.936C29.4203 32.112 28.0283 30.288 26.7483 28.464C25.9163 31.888 25.2123 34.608 24.6363 36.624C24.0603 38.608 23.4843 40.032 22.9083 40.896C22.3643 41.76 21.7083 42.192 20.9403 42.192C19.8203 42.192 19.0683 41.712 18.6843 40.752C18.3003 39.76 18.1083 38.576 18.1083 37.2C18.1083 36.24 18.1723 35.264 18.3003 34.272C18.4603 33.248 18.7003 32.048 19.0203 30.672C19.3403 29.264 19.7723 27.52 20.3163 25.44C19.6123 24.768 19.2603 24.016 19.2603 23.184C19.2603 22.576 19.4203 21.984 19.7403 21.408C20.0923 20.8 20.7483 20.304 21.7083 19.92C22.6043 16.976 23.3723 14.576 24.0123 12.72C24.6523 10.832 25.2283 9.376 25.7403 8.352C26.2523 7.328 26.7163 6.624 27.1323 6.24C27.5803 5.856 28.0443 5.664 28.5243 5.664C29.4203 5.664 30.1083 5.92 30.5883 6.432C31.0683 6.944 31.3083 7.84 31.3083 9.12C31.3083 9.6 31.1643 10.576 30.8763 12.048C30.6203 13.488 30.1243 15.616 29.3883 18.432C32.2043 16.256 34.7963 14.112 37.1643 12C39.5323 9.888 41.5963 7.968 43.3563 6.24C45.1483 4.512 46.6043 3.136 47.7243 2.112C48.8443 1.088 49.5643 0.575998 49.8843 0.575998C50.8123 0.575998 51.5483 0.879998 52.0923 1.488C52.6683 2.064 52.9563 2.72 52.9563 3.456C52.9563 4.192 52.6363 4.96 51.9963 5.76C51.2923 6.592 50.3483 7.648 49.1643 8.928C47.9803 10.208 46.6523 11.6 45.1803 13.104C43.7083 14.576 42.1563 16.048 40.5243 17.52C38.8923 18.96 37.2443 20.272 35.5803 21.456C33.9483 22.64 32.3643 23.568 30.8283 24.24C31.1483 24.56 31.4843 24.928 31.8363 25.344C32.2203 25.728 32.6203 26.16 33.0363 26.64C34.1243 27.824 35.4203 29.136 36.9243 30.576C38.4283 31.984 39.9643 33.376 41.5323 34.752C43.1323 36.096 44.5723 37.28 45.8523 38.304C46.3003 38.72 46.6203 39.136 46.8123 39.552C47.0363 39.936 47.1483 40.432 47.1483 41.04ZM79.8899 20.256C79.8899 21.728 79.3939 23.216 78.4019 24.72C77.4099 26.224 75.8099 27.68 73.6019 29.088C71.4259 30.496 68.5459 31.824 64.9619 33.072C65.1539 34.768 65.7619 35.984 66.7859 36.72C67.8419 37.424 69.5219 37.776 71.8259 37.776C73.9059 37.776 75.8579 37.568 77.6819 37.152C79.5379 36.704 81.2659 36.112 82.8659 35.376C82.4179 34.288 82.0819 33.12 81.8579 31.872C81.6339 30.592 81.5219 29.232 81.5219 27.792C81.5219 24.88 81.9859 22.448 82.9139 20.496C83.8419 18.544 85.0099 17.088 86.4179 16.128C87.8259 15.136 89.2659 14.64 90.7379 14.64C92.0819 14.64 93.3139 14.896 94.4339 15.408C95.5859 15.92 96.4979 16.704 97.1699 17.76C97.8739 18.784 98.2259 20.112 98.2259 21.744C98.2259 24.336 97.4419 26.864 95.8739 29.328C94.3379 31.792 92.3219 34.016 89.8259 36C90.7539 36.896 91.8579 37.344 93.1379 37.344C94.2899 37.344 95.5699 37.04 96.9779 36.432C98.3859 35.824 99.8099 35.024 101.25 34.032C102.722 33.008 104.146 31.92 105.522 30.768C106.898 29.584 108.114 28.448 109.17 27.36C109.554 26.88 109.922 26.576 110.274 26.448C110.658 26.288 111.01 26.208 111.33 26.208C111.874 26.208 112.322 26.384 112.674 26.736C113.026 27.056 113.202 27.52 113.202 28.128C113.202 28.416 113.122 28.768 112.962 29.184C112.802 29.6 112.514 30.048 112.098 30.528C110.914 31.808 109.506 33.184 107.874 34.656C106.274 36.096 104.578 37.456 102.786 38.736C100.994 40.016 99.2179 41.056 97.4579 41.856C95.6979 42.656 94.0659 43.056 92.5619 43.056C89.6179 43.056 87.1059 41.776 85.0259 39.216C82.8499 40.4 80.5619 41.328 78.1619 42C75.7939 42.704 73.4579 43.056 71.1539 43.056C67.0899 43.056 64.0979 42.128 62.1779 40.272C60.2579 38.416 59.2979 35.888 59.2979 32.688C59.2979 29.712 59.6819 26.976 60.4499 24.48C61.2179 21.952 62.2259 19.776 63.4739 17.952C64.7219 16.096 66.0659 14.656 67.5059 13.632C68.9779 12.608 70.4019 12.096 71.7779 12.096C74.4979 12.096 76.5299 12.88 77.8739 14.448C79.2179 16.016 79.8899 17.952 79.8899 20.256ZM65.2499 28.416C66.8819 27.616 68.4019 26.72 69.8099 25.728C71.2499 24.736 72.4019 23.728 73.2659 22.704C74.1619 21.68 74.6099 20.72 74.6099 19.824C74.6099 18.992 74.4339 18.352 74.0819 17.904C73.7299 17.456 73.0419 17.232 72.0179 17.232C71.3779 17.232 70.7059 17.568 70.0019 18.24C69.3299 18.88 68.6739 19.744 68.0339 20.832C67.4259 21.92 66.8659 23.12 66.3539 24.432C65.8739 25.744 65.5059 27.072 65.2499 28.416ZM87.7619 32.064C89.4259 30.56 90.7059 28.88 91.6019 27.024C92.5299 25.136 92.9939 23.184 92.9939 21.168C92.9939 20.944 92.8339 20.656 92.5139 20.304C92.2259 19.92 91.7939 19.728 91.2179 19.728C90.3539 19.728 89.6179 20.064 89.0099 20.736C88.4019 21.408 87.9379 22.288 87.6179 23.376C87.3299 24.432 87.1859 25.584 87.1859 26.832C87.1859 28.848 87.3779 30.592 87.7619 32.064ZM108.678 57.408C107.782 57.408 107.078 57.088 106.566 56.448C106.086 55.84 105.846 54.896 105.846 53.616C105.846 51.856 106.006 49.76 106.326 47.328C106.646 44.896 107.078 42.32 107.622 39.6C108.166 36.88 108.758 34.208 109.398 31.584C110.166 28.576 110.918 25.84 111.654 23.376C112.422 20.912 113.19 18.944 113.958 17.472C114.758 15.968 115.558 15.216 116.358 15.216C117.094 15.216 117.734 15.488 118.278 16.032C118.854 16.544 119.142 17.312 119.142 18.336C119.142 19.072 118.95 20.128 118.566 21.504C118.182 22.848 117.702 24.528 117.126 26.544C118.214 24.752 119.334 22.992 120.486 21.264C121.67 19.536 122.87 17.968 124.086 16.56C125.302 15.152 126.486 14.032 127.638 13.2C128.79 12.368 129.878 11.952 130.902 11.952C132.118 11.952 133.19 12.304 134.118 13.008C135.078 13.712 135.83 14.672 136.374 15.888C136.918 17.104 137.19 18.48 137.19 20.016C137.19 22.864 136.678 25.632 135.654 28.32C134.63 30.976 133.206 33.36 131.382 35.472C129.59 37.584 127.494 39.264 125.094 40.512C122.694 41.728 120.102 42.336 117.318 42.336C116.518 42.336 115.782 42.256 115.11 42.096C114.47 41.968 113.878 41.808 113.334 41.616C112.95 43.664 112.582 45.76 112.23 47.904C111.91 50.08 111.574 52.368 111.222 54.768C110.838 56.528 109.99 57.408 108.678 57.408ZM131.382 17.616C130.678 17.616 129.782 18.096 128.694 19.056C127.638 20.016 126.486 21.28 125.238 22.848C123.99 24.384 122.726 26.064 121.446 27.888C120.198 29.68 118.998 31.44 117.846 33.168C116.726 34.896 115.766 36.4 114.966 37.68C117.398 37.424 119.542 36.784 121.398 35.76C123.254 34.704 124.838 33.424 126.15 31.92C127.462 30.416 128.518 28.832 129.318 27.168C130.15 25.472 130.758 23.824 131.142 22.224C131.526 20.624 131.718 19.232 131.718 18.048C131.718 17.76 131.606 17.616 131.382 17.616ZM171.066 12.768C169.53 12.768 168.394 12.624 167.658 12.336C166.954 12.016 166.49 11.648 166.266 11.232C166.074 10.784 165.978 10.384 165.978 10.032C165.978 9.584 166.234 9.072 166.746 8.496C167.258 7.888 168.25 7.44 169.722 7.152C171.194 6.832 172.938 6.544 174.954 6.288C176.97 6 179.114 5.76 181.386 5.568C183.658 5.344 185.962 5.152 188.298 4.992C190.634 4.832 192.858 4.72 194.97 4.656C197.082 4.56 198.954 4.512 200.586 4.512C202.282 4.512 203.594 4.608 204.522 4.8C205.45 4.992 206.106 5.232 206.49 5.52C206.906 5.808 207.146 6.112 207.21 6.432C207.306 6.752 207.354 7.056 207.354 7.344C207.354 7.408 207.354 7.456 207.354 7.488C207.354 7.872 207.258 8.288 207.066 8.736C206.906 9.184 206.538 9.568 205.962 9.888C205.386 10.176 204.522 10.32 203.37 10.32C202.954 10.32 202.026 10.384 200.586 10.512C199.146 10.64 197.386 10.8 195.306 10.992C193.226 11.184 191.018 11.376 188.682 11.568C188.33 13.008 187.93 14.688 187.482 16.608C187.066 18.528 186.634 20.544 186.186 22.656C185.77 24.768 185.37 26.848 184.986 28.896C184.602 30.912 184.282 32.784 184.026 34.512C183.77 36.208 183.594 37.6 183.498 38.688C183.37 40.16 182.938 41.2 182.202 41.808C181.498 42.384 180.794 42.672 180.09 42.672C179.578 42.672 179.066 42.56 178.554 42.336C178.042 42.144 177.626 41.712 177.306 41.04C176.986 40.336 176.826 39.296 176.826 37.92C176.826 36.512 176.954 34.784 177.21 32.736C177.466 30.656 177.802 28.432 178.218 26.064C178.666 23.696 179.162 21.312 179.706 18.912C180.282 16.512 180.874 14.272 181.482 12.192C179.338 12.352 177.354 12.496 175.53 12.624C173.706 12.72 172.218 12.768 171.066 12.768ZM209.992 55.2C208.2 55.2 206.568 55.088 205.096 54.864C203.624 54.672 202.184 54.352 200.776 53.904C199.368 53.456 197.848 52.864 196.216 52.128C195.544 51.808 194.984 51.472 194.536 51.12C194.088 50.768 193.864 50.24 193.864 49.536C193.864 48.512 194.184 47.728 194.824 47.184C195.432 46.672 196.28 46.416 197.368 46.416C197.944 46.416 198.68 46.608 199.576 46.992C200.472 47.408 201.496 47.872 202.648 48.384C203.832 48.928 205.144 49.392 206.584 49.776C208.024 50.192 209.576 50.4 211.24 50.4C212.936 50.4 214.52 49.696 215.992 48.288C217.464 46.88 218.648 44.896 219.544 42.336C220.472 39.808 220.936 36.816 220.936 33.36C220.936 32.56 220.92 31.696 220.888 30.768C220.856 29.808 220.824 28.8 220.792 27.744C219.64 29.92 218.392 31.952 217.048 33.84C215.704 35.728 214.312 37.264 212.872 38.448C211.464 39.6 210.04 40.176 208.6 40.176C206.84 40.176 205.56 39.76 204.76 38.928C203.992 38.064 203.608 36.704 203.608 34.848C203.608 33.28 203.72 31.568 203.944 29.712C204.2 27.824 204.536 25.92 204.952 24C205.368 22.08 205.848 20.256 206.392 18.528C206.968 16.768 207.576 15.248 208.216 13.968C208.696 13.04 209.432 12.576 210.424 12.576C211.064 12.576 211.704 12.88 212.344 13.488C213.016 14.096 213.352 14.912 213.352 15.936C213.352 16.512 213.208 17.344 212.92 18.432C212.632 19.52 212.28 20.752 211.864 22.128C211.48 23.472 211.08 24.896 210.664 26.4C210.248 27.872 209.896 29.328 209.608 30.768C209.32 32.176 209.176 33.456 209.176 34.608C209.176 34.736 209.272 34.8 209.464 34.8C209.848 34.8 210.36 34.48 211 33.84C211.672 33.168 212.408 32.304 213.208 31.248C214.04 30.16 214.872 28.976 215.704 27.696C216.568 26.384 217.4 25.088 218.2 23.808C219 22.528 219.72 21.36 220.36 20.304C220.264 19.792 220.2 19.344 220.168 18.96C220.168 18.544 220.168 18.192 220.168 17.904C220.168 16.592 220.392 15.504 220.84 14.64C221.32 13.776 222.248 13.344 223.624 13.344C224.52 13.344 225.208 13.68 225.688 14.352C226.168 14.992 226.408 15.904 226.408 17.088C226.408 17.6 226.328 18.192 226.168 18.864C226.008 19.504 225.688 20.528 225.208 21.936L225.736 20.448C226.024 23.328 226.264 25.888 226.456 28.128C226.68 30.368 226.792 32.592 226.792 34.8C226.792 38.96 226.088 42.56 224.68 45.6C223.304 48.672 221.352 51.04 218.824 52.704C216.328 54.368 213.384 55.2 209.992 55.2ZM236.038 57.408C235.142 57.408 234.438 57.088 233.926 56.448C233.446 55.84 233.206 54.896 233.206 53.616C233.206 51.856 233.366 49.76 233.686 47.328C234.006 44.896 234.438 42.32 234.982 39.6C235.526 36.88 236.118 34.208 236.758 31.584C237.526 28.576 238.278 25.84 239.014 23.376C239.782 20.912 240.55 18.944 241.318 17.472C242.118 15.968 242.918 15.216 243.718 15.216C244.454 15.216 245.094 15.488 245.638 16.032C246.214 16.544 246.502 17.312 246.502 18.336C246.502 19.072 246.31 20.128 245.926 21.504C245.542 22.848 245.062 24.528 244.486 26.544C245.574 24.752 246.694 22.992 247.846 21.264C249.03 19.536 250.23 17.968 251.446 16.56C252.662 15.152 253.846 14.032 254.998 13.2C256.15 12.368 257.238 11.952 258.262 11.952C259.478 11.952 260.55 12.304 261.478 13.008C262.438 13.712 263.19 14.672 263.734 15.888C264.278 17.104 264.55 18.48 264.55 20.016C264.55 22.864 264.038 25.632 263.014 28.32C261.99 30.976 260.566 33.36 258.742 35.472C256.95 37.584 254.854 39.264 252.454 40.512C250.054 41.728 247.462 42.336 244.678 42.336C243.878 42.336 243.142 42.256 242.47 42.096C241.83 41.968 241.238 41.808 240.694 41.616C240.31 43.664 239.942 45.76 239.59 47.904C239.27 50.08 238.934 52.368 238.582 54.768C238.198 56.528 237.35 57.408 236.038 57.408ZM258.742 17.616C258.038 17.616 257.142 18.096 256.054 19.056C254.998 20.016 253.846 21.28 252.598 22.848C251.35 24.384 250.086 26.064 248.806 27.888C247.558 29.68 246.358 31.44 245.206 33.168C244.086 34.896 243.126 36.4 242.326 37.68C244.758 37.424 246.902 36.784 248.758 35.76C250.614 34.704 252.198 33.424 253.51 31.92C254.822 30.416 255.878 28.832 256.678 27.168C257.51 25.472 258.118 23.824 258.502 22.224C258.886 20.624 259.078 19.232 259.078 18.048C259.078 17.76 258.966 17.616 258.742 17.616ZM272.11 42.72C271.214 42.72 270.414 42.416 269.71 41.808C269.038 41.2 268.702 40.208 268.702 38.832C268.702 38.096 268.798 37.056 268.99 35.712C269.214 34.368 269.502 32.912 269.854 31.344C270.206 29.744 270.59 28.16 271.006 26.592C271.454 25.024 271.886 23.632 272.302 22.416C272.718 21.168 273.086 20.24 273.406 19.632C273.822 18.896 274.206 18.448 274.558 18.288C274.942 18.096 275.31 18 275.662 18C276.302 18 276.894 18.192 277.438 18.576C278.014 18.96 278.302 19.808 278.302 21.12C278.302 21.632 278.206 22.464 278.014 23.616C277.822 24.736 277.582 26.048 277.294 27.552C277.006 29.056 276.686 30.608 276.334 32.208C276.014 33.808 275.694 35.328 275.374 36.768C275.086 38.176 274.846 39.36 274.654 40.32C274.494 41.12 274.158 41.712 273.646 42.096C273.166 42.512 272.654 42.72 272.11 42.72ZM277.63 13.248C276.574 13.248 275.598 12.944 274.702 12.336C273.806 11.696 273.358 10.72 273.358 9.408C273.358 8.32 273.63 7.44 274.174 6.768C274.718 6.096 275.358 5.616 276.094 5.328C276.862 5.008 277.534 4.848 278.11 4.848C278.686 4.848 279.326 4.976 280.03 5.232C280.734 5.456 281.342 5.888 281.854 6.528C282.398 7.136 282.67 8.016 282.67 9.168C282.67 9.936 282.398 10.64 281.854 11.28C281.31 11.888 280.638 12.368 279.838 12.72C279.07 13.072 278.334 13.248 277.63 13.248ZM289.552 42C288.784 42 288.016 41.744 287.248 41.232C286.512 40.688 285.904 39.92 285.424 38.928C284.944 37.904 284.704 36.672 284.704 35.232C284.704 33.312 284.96 31.264 285.472 29.088C286.016 26.912 286.672 24.736 287.44 22.56C288.208 20.384 288.96 18.336 289.696 16.416C290.048 15.488 290.48 14.864 290.992 14.544C291.504 14.192 292.176 14.016 293.008 14.016C294.896 14.016 295.84 14.96 295.84 16.848C295.84 17.168 295.696 17.792 295.408 18.72C295.12 19.616 294.736 20.72 294.256 22.032C293.808 23.344 293.328 24.768 292.816 26.304C292.336 27.808 291.888 29.344 291.472 30.912C291.088 32.448 290.784 33.904 290.56 35.28C291.296 34.16 292.112 32.768 293.008 31.104C293.936 29.408 294.912 27.632 295.936 25.776C296.992 23.92 298.048 22.192 299.104 20.592C300.16 18.96 301.2 17.632 302.224 16.608C303.248 15.584 304.224 15.072 305.152 15.072C305.952 15.072 306.704 15.232 307.408 15.552C308.144 15.84 308.784 16.416 309.328 17.28C309.872 18.112 310.288 19.312 310.576 20.88C310.896 22.448 311.056 24.512 311.056 27.072C311.056 28.352 311.168 29.6 311.392 30.816C311.648 32 312.064 32.992 312.64 33.792C313.216 34.56 314.032 34.944 315.088 34.944C316.912 34.944 318.544 34.608 319.984 33.936C321.424 33.264 322.688 32.48 323.776 31.584C324.864 30.688 325.776 29.904 326.512 29.232C326.96 28.784 327.344 28.432 327.664 28.176C328.016 27.92 328.304 27.792 328.528 27.792C329.2 27.792 329.68 27.968 329.968 28.32C330.288 28.672 330.448 29.152 330.448 29.76C330.448 30.08 330.176 30.672 329.632 31.536C329.088 32.4 328.32 33.392 327.328 34.512C326.368 35.6 325.264 36.656 324.016 37.68C322.768 38.704 321.424 39.552 319.984 40.224C318.544 40.896 317.072 41.232 315.568 41.232C313.04 41.232 310.944 40.784 309.28 39.888C307.648 38.96 306.432 37.424 305.632 35.28C304.832 33.104 304.432 30.144 304.432 26.4C304.432 26.304 304.432 26.144 304.432 25.92C304.432 24.928 304.416 24.048 304.384 23.28C304.384 22.512 304.336 21.888 304.24 21.408C303.696 22.4 303.04 23.584 302.272 24.96C301.536 26.336 300.736 27.808 299.872 29.376C299.008 30.912 298.112 32.432 297.184 33.936C296.256 35.408 295.328 36.752 294.4 37.968C293.504 39.184 292.64 40.16 291.808 40.896C290.976 41.632 290.224 42 289.552 42ZM330.06 55.824C327.66 55.824 325.836 55.648 324.588 55.296C323.372 54.944 322.54 54.48 322.092 53.904C321.644 53.36 321.42 52.8 321.42 52.224C321.42 51.424 321.676 50.768 322.188 50.256C322.732 49.744 323.436 49.488 324.3 49.488C324.876 49.488 325.708 49.568 326.796 49.728C327.884 49.888 328.972 49.968 330.06 49.968C333.26 49.968 335.9 49.2 337.98 47.664C340.06 46.16 341.692 43.872 342.876 40.8C344.06 37.696 344.876 33.792 345.324 29.088C343.116 32.704 340.668 35.6 337.98 37.776C335.324 39.952 332.556 41.04 329.676 41.04C326.284 41.04 324.588 39.376 324.588 36.048C324.588 34.448 325.02 32.768 325.884 31.008C326.748 29.248 327.9 27.504 329.34 25.776C330.78 24.048 332.364 22.416 334.092 20.88C335.82 19.312 337.548 17.936 339.276 16.752C341.036 15.568 342.668 14.64 344.172 13.968C345.676 13.264 346.892 12.912 347.82 12.912C348.556 12.912 349.196 13.04 349.74 13.296C350.316 13.552 350.764 14.064 351.084 14.832C351.404 15.568 351.564 16.656 351.564 18.096C351.564 22.096 351.42 25.968 351.132 29.712C350.844 33.424 350.284 36.864 349.452 40.032C348.62 43.2 347.404 45.968 345.804 48.336C344.236 50.704 342.172 52.544 339.612 53.856C337.052 55.168 333.868 55.824 330.06 55.824ZM330.732 35.088C330.732 35.312 330.828 35.424 331.02 35.424C331.66 35.424 332.524 35.088 333.612 34.416C334.7 33.712 335.868 32.784 337.116 31.632C338.396 30.448 339.644 29.136 340.86 27.696C342.076 26.224 343.148 24.704 344.076 23.136C345.036 21.568 345.724 20.048 346.14 18.576C344.476 19.536 342.748 20.656 340.956 21.936C339.196 23.184 337.532 24.528 335.964 25.968C334.428 27.408 333.164 28.912 332.172 30.48C331.212 32.016 330.732 33.552 330.732 35.088ZM388.094 43.296C387.326 43.296 386.654 43.072 386.078 42.624C385.502 42.176 385.214 41.216 385.214 39.744C385.214 39.072 385.454 38 385.934 36.528C386.414 35.056 387.054 33.328 387.854 31.344C388.686 29.328 389.614 27.2 390.638 24.96C391.662 22.72 392.734 20.496 393.854 18.288C394.974 16.08 396.062 14.032 397.118 12.144C398.174 10.256 399.15 8.656 400.046 7.344C400.974 6 401.726 5.104 402.302 4.656C403.134 4.048 403.966 3.744 404.798 3.744C405.246 3.744 405.678 3.792 406.094 3.888C406.542 3.984 406.91 4.144 407.198 4.368C407.87 4.784 408.462 5.584 408.974 6.768C409.518 7.92 409.998 9.312 410.414 10.944C410.862 12.576 411.23 14.336 411.518 16.224C411.838 18.08 412.11 19.92 412.334 21.744C413.55 21.584 414.382 21.504 414.83 21.504C415.79 21.504 416.638 21.648 417.374 21.936C418.11 22.192 418.494 22.736 418.526 23.568C418.59 24.368 418.334 25.04 417.758 25.584C417.214 26.128 416.51 26.528 415.646 26.784C415.262 26.912 414.334 27.12 412.862 27.408C412.958 29.04 413.006 30.416 413.006 31.536C413.006 34.384 412.846 36.592 412.526 38.16C412.238 39.728 411.854 40.848 411.374 41.52C410.926 42.192 410.446 42.592 409.934 42.72C409.454 42.88 409.022 42.96 408.638 42.96C408.606 42.96 408.574 42.96 408.542 42.96C407.614 42.96 406.926 42.72 406.478 42.24C406.062 41.76 405.854 40.96 405.854 39.84V36.432C405.854 35.376 405.838 34.192 405.806 32.88C405.774 31.568 405.71 30.176 405.614 28.704C403.726 29.024 401.838 29.344 399.95 29.664C398.094 29.952 396.494 30.208 395.15 30.432C394.542 31.872 394.014 33.168 393.566 34.32C393.118 35.44 392.814 36.32 392.654 36.96C392.174 38.528 391.726 39.76 391.31 40.656C390.894 41.52 390.494 42.128 390.11 42.48C389.758 42.864 389.422 43.088 389.102 43.152C388.782 43.248 388.446 43.296 388.094 43.296ZM397.79 24.528C399.134 24.208 400.43 23.92 401.678 23.664C402.926 23.376 404.11 23.12 405.23 22.896C405.07 20.912 404.878 18.976 404.654 17.088C404.43 15.2 404.174 13.52 403.886 12.048C403.054 13.648 402.078 15.568 400.958 17.808C399.87 20.016 398.814 22.256 397.79 24.528ZM429.286 42C428.518 42 427.75 41.744 426.982 41.232C426.246 40.688 425.638 39.92 425.158 38.928C424.678 37.904 424.438 36.672 424.438 35.232C424.438 33.312 424.694 31.264 425.206 29.088C425.75 26.912 426.406 24.736 427.174 22.56C427.942 20.384 428.694 18.336 429.43 16.416C429.782 15.488 430.214 14.864 430.726 14.544C431.238 14.192 431.91 14.016 432.742 14.016C434.63 14.016 435.574 14.96 435.574 16.848C435.574 17.168 435.43 17.792 435.142 18.72C434.854 19.616 434.47 20.72 433.99 22.032C433.542 23.344 433.062 24.768 432.55 26.304C432.07 27.808 431.622 29.344 431.206 30.912C430.822 32.448 430.518 33.904 430.294 35.28C431.03 34.16 431.846 32.768 432.742 31.104C433.67 29.408 434.646 27.632 435.67 25.776C436.726 23.92 437.782 22.192 438.838 20.592C439.894 18.96 440.934 17.632 441.958 16.608C442.982 15.584 443.958 15.072 444.886 15.072C445.686 15.072 446.438 15.232 447.142 15.552C447.878 15.84 448.518 16.416 449.062 17.28C449.606 18.112 450.022 19.312 450.31 20.88C450.63 22.448 450.79 24.512 450.79 27.072C450.79 28.352 450.902 29.6 451.126 30.816C451.382 32 451.798 32.992 452.374 33.792C452.95 34.56 453.766 34.944 454.822 34.944C456.646 34.944 458.278 34.608 459.718 33.936C461.158 33.264 462.422 32.48 463.51 31.584C464.598 30.688 465.51 29.904 466.246 29.232C466.694 28.784 467.078 28.432 467.398 28.176C467.75 27.92 468.038 27.792 468.262 27.792C468.934 27.792 469.414 27.968 469.702 28.32C470.022 28.672 470.182 29.152 470.182 29.76C470.182 30.08 469.91 30.672 469.366 31.536C468.822 32.4 468.054 33.392 467.062 34.512C466.102 35.6 464.998 36.656 463.75 37.68C462.502 38.704 461.158 39.552 459.718 40.224C458.278 40.896 456.806 41.232 455.302 41.232C452.774 41.232 450.678 40.784 449.014 39.888C447.382 38.96 446.166 37.424 445.366 35.28C444.566 33.104 444.166 30.144 444.166 26.4C444.166 26.304 444.166 26.144 444.166 25.92C444.166 24.928 444.15 24.048 444.118 23.28C444.118 22.512 444.07 21.888 443.974 21.408C443.43 22.4 442.774 23.584 442.006 24.96C441.27 26.336 440.47 27.808 439.606 29.376C438.742 30.912 437.846 32.432 436.918 33.936C435.99 35.408 435.062 36.752 434.134 37.968C433.238 39.184 432.374 40.16 431.542 40.896C430.71 41.632 429.958 42 429.286 42ZM485.64 16.32C487.4 12.128 488.952 7.808 490.296 3.36C490.552 2.464 490.92 1.776 491.4 1.296C491.912 0.815998 492.616 0.575998 493.512 0.575998C494.248 0.575998 494.808 0.799998 495.192 1.248C495.576 1.664 495.768 2.24 495.768 2.976C495.768 3.584 495.512 4.672 495 6.24C494.488 7.776 493.864 9.728 493.128 12.096C492.392 14.464 491.656 17.2 490.92 20.304C490.184 23.408 489.56 26.816 489.048 30.528C488.536 34.24 488.28 38.208 488.28 42.432C488.28 43.584 488.056 44.528 487.608 45.264C487.192 46.032 486.456 46.416 485.4 46.416C484.248 46.416 483.4 46.016 482.856 45.216C482.344 44.416 482.088 43.392 482.088 42.144C482.088 39.68 482.168 37.632 482.328 36C482.52 34.336 482.712 32.912 482.904 31.728C481.336 34.416 479.672 36.736 477.912 38.688C476.184 40.608 474.52 42.08 472.92 43.104C471.32 44.16 469.944 44.688 468.792 44.688C466.904 44.688 465.368 44.16 464.184 43.104C463 42.048 462.408 40.448 462.408 38.304C462.408 36.64 462.808 34.928 463.608 33.168C464.408 31.376 465.464 29.616 466.776 27.888C468.088 26.16 469.528 24.544 471.096 23.04C472.696 21.504 474.296 20.16 475.896 19.008C477.496 17.824 478.984 16.896 480.36 16.224C481.736 15.552 482.856 15.216 483.72 15.216C484.68 15.216 485.32 15.584 485.64 16.32ZM484.536 18.912C484.344 19.04 484.136 19.168 483.912 19.296C483.72 19.392 483.528 19.504 483.336 19.632C482.12 20.4 480.824 21.328 479.448 22.416C478.072 23.472 476.712 24.656 475.368 25.968C474.024 27.248 472.792 28.592 471.672 30C470.584 31.376 469.704 32.752 469.032 34.128C468.392 35.472 468.072 36.768 468.072 38.016C468.072 38.24 468.168 38.4 468.36 38.496C468.552 38.592 468.728 38.64 468.888 38.64C470.008 38.64 471.208 38.144 472.488 37.152C473.8 36.16 475.128 34.784 476.472 33.024C477.848 31.232 479.208 29.136 480.552 26.736C481.928 24.336 483.256 21.728 484.536 18.912ZM15.1636 112.848C13.8836 112.848 12.9556 112.528 12.3796 111.888C11.8036 111.248 11.5156 110.496 11.5156 109.632C11.5156 108.608 12.0596 106.32 13.1476 102.768C14.2356 99.184 15.9956 94.32 18.4276 88.176C17.3076 89.584 16.1716 90.88 15.0196 92.064C13.8676 93.248 12.7156 94.192 11.5636 94.896C10.4436 95.568 9.33963 95.904 8.25163 95.904C5.85163 95.904 3.97963 95.168 2.63563 93.696C1.29163 92.224 0.619625 89.872 0.619625 86.64C0.619625 83.312 0.875625 80.48 1.38763 78.144C1.89963 75.776 2.52363 73.856 3.25963 72.384C3.99563 70.912 4.71563 69.84 5.41963 69.168C6.12363 68.464 6.66763 68.112 7.05163 68.112C8.20363 68.112 9.08363 68.384 9.69163 68.928C10.3316 69.44 10.6516 70.16 10.6516 71.088C10.6516 71.984 10.4596 72.944 10.0756 73.968C9.72363 74.992 9.30763 76.176 8.82763 77.52C8.34763 78.864 7.91563 80.464 7.53163 82.32C7.17963 84.144 7.00363 86.32 7.00363 88.848C7.00363 89.424 7.19563 89.712 7.57963 89.712C8.69963 89.712 9.85163 89.312 11.0356 88.512C12.2516 87.68 13.4516 86.608 14.6356 85.296C15.8516 83.984 17.0036 82.544 18.0916 80.976C19.1796 79.376 20.1716 77.792 21.0676 76.224C21.9956 74.656 22.7636 73.248 23.3716 72C23.7556 71.264 24.1076 70.592 24.4276 69.984C24.7476 69.344 25.1636 68.848 25.6756 68.496C26.1876 68.112 26.8916 67.92 27.7876 67.92C28.9076 67.92 29.7556 68.224 30.3316 68.832C30.9396 69.44 31.2436 70.304 31.2436 71.424C31.2436 72.064 30.6356 73.824 29.4196 76.704C28.2036 79.552 26.6516 83.824 24.7636 89.52C23.3876 93.68 22.2356 97.168 21.3076 99.984C20.3796 102.8 19.5956 105.072 18.9556 106.8C18.3476 108.496 17.8356 109.776 17.4196 110.64C17.0036 111.504 16.6196 112.08 16.2676 112.368C15.9156 112.688 15.5476 112.848 15.1636 112.848ZM41.3881 109.584C39.1161 109.584 37.2921 108.784 35.9161 107.184C34.5401 105.552 33.8521 103.376 33.8521 100.656C33.8521 99.792 33.9641 98.912 34.1881 98.016C34.4441 97.12 34.7481 96.288 35.1001 95.52C34.9081 95.232 34.7481 94.864 34.6201 94.416C34.5241 93.936 34.4761 93.376 34.4761 92.736C34.4761 90.656 34.8441 88.752 35.5801 87.024C36.3161 85.264 37.3081 83.744 38.5561 82.464C39.8041 81.184 41.1801 80.192 42.6841 79.488C44.1881 78.784 45.7081 78.432 47.2441 78.432C49.8681 78.432 52.0121 79.312 53.6761 81.072C55.3721 82.832 56.2201 85.568 56.2201 89.28C56.2201 91.136 55.9321 93.024 55.3561 94.944C54.7801 96.864 53.9961 98.704 53.0041 100.464C52.0441 102.192 50.9241 103.744 49.6441 105.12C48.3961 106.496 47.0521 107.584 45.6121 108.384C44.2041 109.184 42.7961 109.584 41.3881 109.584ZM40.6201 93.36C40.7801 93.712 40.8601 94.128 40.8601 94.608C40.8601 95.088 40.7641 95.584 40.5721 96.096C40.3801 96.608 40.1881 97.296 39.9961 98.16C39.8041 98.992 39.7081 100.192 39.7081 101.76C39.7081 102.176 39.7561 102.528 39.8521 102.816C39.9801 103.072 40.2521 103.2 40.6681 103.2C41.7561 103.2 42.7801 102.848 43.7401 102.144C44.7321 101.44 45.6121 100.512 46.3801 99.36C47.1801 98.208 47.8521 96.928 48.3961 95.52C48.9721 94.08 49.4041 92.624 49.6921 91.152C50.0121 89.648 50.1721 88.256 50.1721 86.976C50.1721 86.144 50.0121 85.568 49.6921 85.248C49.3721 84.928 48.8121 84.768 48.0121 84.768C46.9241 84.768 45.8041 85.12 44.6521 85.824C43.5321 86.496 42.5881 87.424 41.8201 88.608C41.0521 89.76 40.6681 91.072 40.6681 92.544C40.6681 92.832 40.6521 93.104 40.6201 93.36ZM80.2933 110.16C79.5573 110.16 78.8853 109.856 78.2773 109.248C77.7013 108.672 77.4133 107.696 77.4133 106.32C77.4133 105.296 77.4933 103.872 77.6533 102.048C77.8453 100.192 78.1973 97.808 78.7093 94.896C77.5893 97.2 76.4213 99.248 75.2053 101.04C73.9893 102.832 72.7893 104.24 71.6053 105.264C70.4533 106.256 69.3493 106.752 68.2933 106.752C66.5973 106.752 65.2533 106.24 64.2613 105.216C63.2693 104.16 62.7733 102.192 62.7733 99.312C62.7733 97.936 62.8853 96.384 63.1093 94.656C63.3653 92.928 63.6853 91.2 64.0693 89.472C64.4533 87.744 64.8373 86.208 65.2213 84.864C65.6373 83.488 66.0053 82.464 66.3253 81.792C66.5813 81.216 66.9013 80.768 67.2853 80.448C67.7013 80.128 68.2293 79.968 68.8693 79.968C69.8933 79.968 70.6773 80.304 71.2213 80.976C71.7653 81.648 72.0373 82.336 72.0373 83.04C72.0373 83.584 71.9093 84.368 71.6533 85.392C71.4293 86.416 71.1413 87.552 70.7893 88.8C70.4693 90.048 70.1333 91.328 69.7812 92.64C69.4293 93.952 69.1253 95.184 68.8693 96.336C68.6453 97.488 68.5333 98.464 68.5333 99.264C68.5333 100.256 68.9173 100.752 69.6853 100.752C70.1333 100.752 70.7093 100.32 71.4133 99.456C72.1493 98.592 72.9173 97.44 73.7173 96C74.5493 94.528 75.3813 92.928 76.2133 91.2C77.0773 89.44 77.8613 87.664 78.5653 85.872C79.3013 84.048 79.9253 82.368 80.4373 80.832C80.7573 79.872 81.1893 79.2 81.7333 78.816C82.2773 78.432 82.9013 78.24 83.6053 78.24C84.6933 78.24 85.5253 78.544 86.1013 79.152C86.7093 79.76 87.0133 80.624 87.0133 81.744C87.0133 82.256 86.9333 83.12 86.7733 84.336C86.6133 85.552 86.4053 86.976 86.1493 88.608C85.9253 90.24 85.6533 91.968 85.3333 93.792C85.0133 95.616 84.6933 97.408 84.3733 99.168C84.0853 100.928 83.7973 102.544 83.5093 104.016C83.2213 105.456 82.9813 106.608 82.7893 107.472C82.4693 108.752 82.0853 109.52 81.6373 109.776C81.1893 110.032 80.7413 110.16 80.2933 110.16ZM148.701 109.632C147.645 109.632 146.621 109.504 145.629 109.248C144.637 109.024 143.741 108.48 142.941 107.616C142.141 106.752 141.485 105.408 140.973 103.584C140.461 101.728 140.157 99.216 140.061 96.048C138.717 98.384 137.229 100.48 135.597 102.336C133.997 104.192 132.381 105.664 130.749 106.752C129.149 107.808 127.645 108.336 126.237 108.336C124.829 108.336 123.549 107.984 122.397 107.28C121.277 106.576 120.381 105.392 119.709 103.728C119.069 102.064 118.749 99.808 118.749 96.96C118.749 94.752 118.941 92.512 119.325 90.24C119.709 87.936 120.205 85.744 120.813 83.664C121.421 81.552 122.077 79.664 122.781 78C123.485 76.336 124.173 75.024 124.845 74.064C125.549 73.104 126.157 72.624 126.669 72.624C127.885 72.624 128.781 72.944 129.357 73.584C129.933 74.192 130.221 74.976 130.221 75.936C130.221 76.352 130.045 77.168 129.693 78.384C129.341 79.568 128.909 81.008 128.397 82.704C127.885 84.368 127.357 86.16 126.813 88.08C126.301 89.968 125.869 91.84 125.517 93.696C125.165 95.552 124.989 97.248 124.989 98.784C124.989 99.424 125.037 99.968 125.133 100.416C125.261 100.832 125.485 101.04 125.805 101.04C127.501 101.04 129.069 100.4 130.509 99.12C131.981 97.808 133.325 96.08 134.541 93.936C135.789 91.76 136.893 89.376 137.853 86.784C138.845 84.16 139.725 81.536 140.493 78.912C140.429 78.336 140.381 77.776 140.349 77.232C140.349 76.688 140.349 76.096 140.349 75.456C140.349 74.752 140.621 74 141.165 73.2C141.709 72.4 142.365 71.728 143.133 71.184C143.933 70.608 144.685 70.32 145.389 70.32C146.189 70.32 146.845 70.576 147.357 71.088C147.901 71.6 148.173 72.496 148.173 73.776C148.173 74.832 148.125 75.712 148.029 76.416C147.965 77.088 147.853 77.728 147.693 78.336C147.565 78.944 147.421 79.632 147.261 80.4C147.133 81.136 146.989 82.096 146.829 83.28C146.701 84.464 146.589 85.984 146.493 87.84C146.429 89.696 146.397 92.032 146.397 94.848C146.397 95.04 146.397 95.232 146.397 95.424C146.397 95.584 146.397 95.76 146.397 95.952C146.365 96.848 146.381 97.76 146.445 98.688C146.509 99.616 146.749 100.384 147.165 100.992C147.581 101.6 148.317 101.904 149.373 101.904C150.525 101.904 151.613 101.168 152.637 99.696C153.661 98.224 154.573 96.176 155.373 93.552C156.173 90.896 156.861 87.792 157.437 84.24C158.013 80.656 158.445 76.784 158.733 72.624C158.829 71.216 159.069 70.16 159.453 69.456C159.869 68.752 160.333 68.288 160.845 68.064C161.357 67.808 161.805 67.68 162.189 67.68C162.573 67.68 163.037 67.744 163.581 67.872C164.125 68 164.605 68.368 165.021 68.976C165.437 69.584 165.645 70.608 165.645 72.048C165.645 77.552 165.245 82.384 164.445 86.544C163.645 90.704 162.605 94.256 161.325 97.2C160.045 100.144 158.637 102.528 157.101 104.352C155.597 106.176 154.109 107.504 152.637 108.336C151.165 109.2 149.853 109.632 148.701 109.632ZM204.897 110.448C203.649 110.448 202.737 110.112 202.161 109.44C201.585 108.8 201.297 107.504 201.297 105.552C201.297 103.888 201.569 101.728 202.113 99.072C202.657 96.416 203.265 93.552 203.937 90.48C200.385 94.448 196.289 96.976 191.649 98.064C190.721 99.984 189.633 101.744 188.385 103.344C187.137 104.944 185.777 106.24 184.305 107.232C182.865 108.192 181.361 108.672 179.793 108.672C177.841 108.672 176.161 108.032 174.753 106.752C173.377 105.472 172.689 103.504 172.689 100.848C172.689 99.056 172.961 97.536 173.505 96.288C174.049 95.008 174.673 94.048 175.377 93.408C174.801 92.192 174.513 90.8 174.513 89.232C174.513 87.12 175.089 85.248 176.241 83.616C177.393 81.984 178.913 80.704 180.801 79.776C182.721 78.848 184.801 78.384 187.041 78.384C188.289 78.384 189.473 78.704 190.593 79.344C191.745 79.952 192.673 80.896 193.377 82.176C194.113 83.424 194.481 85.008 194.481 86.928C194.481 88.528 194.241 90.288 193.761 92.208C196.033 90.864 198.273 89.024 200.481 86.688C202.721 84.352 204.721 81.728 206.481 78.816C207.025 77.952 207.793 77.52 208.785 77.52C209.617 77.52 210.273 77.776 210.753 78.288C211.265 78.768 211.521 79.408 211.521 80.208C211.521 80.368 211.425 80.896 211.233 81.792C211.041 82.688 210.785 83.856 210.465 85.296C210.145 86.704 209.793 88.256 209.409 89.952C209.057 91.648 208.705 93.376 208.353 95.136C208.001 96.896 207.681 98.56 207.393 100.128C208.225 98.624 209.121 97.024 210.081 95.328C211.073 93.6 212.097 91.904 213.153 90.24C214.209 88.544 215.249 87.008 216.273 85.632C217.297 84.256 218.241 83.168 219.105 82.368C219.969 81.536 220.705 81.12 221.313 81.12C222.529 81.12 223.553 81.472 224.385 82.176C225.217 82.88 225.633 83.6 225.633 84.336C225.633 85.072 225.553 86.208 225.393 87.744C225.233 89.28 225.025 91.008 224.769 92.928C224.545 94.816 224.305 96.72 224.049 98.64C223.793 100.56 223.585 102.304 223.425 103.872C223.265 105.408 223.185 106.56 223.185 107.328C223.185 107.968 222.881 108.576 222.273 109.152C221.665 109.728 220.977 110.016 220.209 110.016C220.145 110.016 220.033 110.016 219.873 110.016C219.489 110.048 219.137 109.984 218.817 109.824C218.497 109.696 218.225 109.216 218.001 108.384C217.809 107.552 217.713 106.144 217.713 104.16C217.713 102.816 217.777 101.344 217.905 99.744C218.033 98.144 218.193 96.544 218.385 94.944C218.609 93.312 218.849 91.792 219.105 90.384C218.273 91.76 217.345 93.328 216.321 95.088C215.329 96.816 214.289 98.592 213.201 100.416C212.113 102.208 211.041 103.872 209.985 105.408C208.961 106.912 208.001 108.128 207.105 109.056C206.241 109.984 205.505 110.448 204.897 110.448ZM186.849 94.416C187.265 93.168 187.601 91.872 187.857 90.528C188.113 89.152 188.241 87.808 188.241 86.496C188.241 85.952 188.129 85.424 187.905 84.912C187.681 84.4 187.297 84.144 186.753 84.144C185.665 84.144 184.593 84.368 183.537 84.816C182.513 85.264 181.665 85.904 180.993 86.736C180.321 87.568 179.985 88.56 179.985 89.712C179.985 90.736 180.321 91.6 180.993 92.304C181.697 93.008 182.561 93.536 183.585 93.888C184.641 94.24 185.681 94.416 186.705 94.416C186.737 94.416 186.785 94.416 186.849 94.416ZM184.881 98.64C183.761 98.608 182.673 98.464 181.617 98.208C180.561 97.92 179.601 97.52 178.737 97.008C178.641 97.52 178.545 98.016 178.449 98.496C178.353 98.944 178.305 99.376 178.305 99.792C178.305 100.496 178.417 101.136 178.641 101.712C178.897 102.256 179.409 102.528 180.177 102.528C180.977 102.528 181.777 102.176 182.577 101.472C183.409 100.768 184.177 99.824 184.881 98.64ZM234.225 89.232C233.617 89.232 233.153 89.072 232.833 88.752C232.513 88.432 232.353 87.872 232.353 87.072C232.353 86.592 232.497 86.096 232.785 85.584C233.105 85.072 233.457 84.464 233.841 83.76C234.225 83.056 234.561 82.208 234.849 81.216C235.169 80.224 235.329 79.04 235.329 77.664C235.329 77.216 235.297 76.768 235.233 76.32C235.201 75.84 235.185 75.392 235.185 74.976C235.185 71.648 236.241 69.984 238.353 69.984C239.313 69.984 240.097 70.32 240.705 70.992C241.313 71.664 241.617 73.008 241.617 75.024C241.617 77.264 241.345 79.264 240.801 81.024C240.257 82.784 239.585 84.272 238.785 85.488C237.985 86.704 237.169 87.632 236.337 88.272C235.505 88.912 234.801 89.232 234.225 89.232ZM279.276 83.808C279.276 84.192 279.148 84.528 278.892 84.816C278.636 85.104 278.316 85.328 277.932 85.488C277.388 85.712 276.444 86 275.1 86.352C273.756 86.704 272.124 87.104 270.204 87.552C268.316 88 266.284 88.464 264.108 88.944C261.932 89.392 259.756 89.824 257.58 90.24C256.748 93.312 255.9 96.48 255.036 99.744C254.172 102.976 253.308 106.16 252.444 109.296C252.124 110.416 251.74 111.264 251.292 111.84C250.844 112.448 250.076 112.752 248.988 112.752C247.804 112.752 247.004 112.368 246.588 111.6C246.204 110.864 246.156 109.856 246.444 108.576C247.276 105.088 248.044 101.84 248.748 98.832C249.484 95.824 250.076 93.392 250.524 91.536C248.604 91.856 246.924 92.112 245.484 92.304C244.044 92.464 243.02 92.528 242.412 92.496C241.74 92.432 241.18 92.16 240.732 91.68C240.284 91.2 240.076 90.608 240.108 89.904C240.172 89.264 240.46 88.72 240.972 88.272C241.484 87.792 242.092 87.504 242.796 87.408C243.788 87.312 245.068 87.168 246.636 86.976C248.204 86.784 249.932 86.56 251.82 86.304C252.236 84.672 252.716 82.992 253.26 81.264C253.804 79.504 254.364 77.824 254.94 76.224C255.548 74.592 256.124 73.168 256.668 71.952C257.212 70.736 257.708 69.856 258.156 69.312C258.508 68.896 258.94 68.576 259.452 68.352C259.996 68.128 260.524 68.016 261.036 68.016C261.708 68.016 262.252 68.256 262.668 68.736C263.084 69.216 263.292 69.776 263.292 70.416C263.292 70.672 263.276 70.944 263.244 71.232C263.212 71.488 263.148 71.744 263.052 72C262.444 73.6 261.788 75.536 261.084 77.808C260.412 80.08 259.708 82.576 258.972 85.296C261.372 84.944 263.724 84.592 266.028 84.24C268.364 83.856 270.476 83.504 272.364 83.184C274.284 82.832 275.82 82.528 276.972 82.272C277.612 82.048 278.156 82.096 278.604 82.416C279.052 82.704 279.276 83.168 279.276 83.808ZM306.931 108.384C306.067 108.384 305.123 108.176 304.099 107.76C303.107 107.312 302.163 106.56 301.267 105.504C300.371 104.448 299.635 102.992 299.059 101.136C298.483 99.28 298.195 96.928 298.195 94.08C298.195 91.968 298.467 89.824 299.011 87.648C299.587 85.44 300.483 83.36 301.699 81.408C302.915 79.456 304.483 77.76 306.403 76.32C308.355 74.88 310.691 73.872 313.411 73.296C314.531 73.04 315.811 72.8 317.251 72.576C318.723 72.32 320.211 72.096 321.715 71.904C323.219 71.68 324.643 71.504 325.987 71.376C327.363 71.248 328.515 71.184 329.443 71.184C330.979 71.184 332.131 71.392 332.899 71.808C333.667 72.224 334.179 72.704 334.435 73.248C334.691 73.76 334.819 74.224 334.819 74.64C334.819 75.152 334.659 75.664 334.339 76.176C334.051 76.688 333.251 77.024 331.939 77.184C331.651 77.216 331.043 77.296 330.115 77.424C329.187 77.52 328.067 77.664 326.755 77.856C325.475 78.048 324.115 78.256 322.675 78.48C321.267 78.672 319.891 78.88 318.547 79.104C317.235 79.296 316.099 79.472 315.139 79.632C313.027 80.016 311.315 80.656 310.003 81.552C308.691 82.416 307.667 83.44 306.931 84.624C306.227 85.808 305.715 87.056 305.395 88.368C306.675 88.08 308.003 87.792 309.379 87.504C310.755 87.216 312.051 86.96 313.267 86.736C314.515 86.512 315.587 86.336 316.483 86.208C317.379 86.08 317.987 86.016 318.307 86.016C319.555 86.016 320.307 86.176 320.563 86.496C320.851 86.816 320.995 87.312 320.995 87.984C320.995 88.592 320.451 89.296 319.363 90.096C318.275 90.864 316.547 91.648 314.179 92.448C311.811 93.248 308.707 93.952 304.867 94.56C304.867 94.592 304.867 94.608 304.867 94.608C304.803 95.248 304.755 95.984 304.723 96.816C304.691 97.616 304.675 98.416 304.675 99.216C304.675 100.016 304.723 100.672 304.819 101.184C304.915 101.696 305.091 101.952 305.347 101.952C306.051 101.952 307.027 101.808 308.275 101.52C309.523 101.232 310.835 100.88 312.211 100.464C313.587 100.048 314.867 99.648 316.051 99.264C317.235 98.848 318.099 98.528 318.643 98.304C319.443 97.984 320.243 97.664 321.043 97.344C321.875 97.024 322.531 96.864 323.011 96.864C323.491 96.864 323.907 97.056 324.259 97.44C324.611 97.792 324.723 98.336 324.595 99.072C324.563 99.392 324.227 99.92 323.587 100.656C322.979 101.36 322.131 102.16 321.043 103.056C319.987 103.92 318.723 104.768 317.251 105.6C315.811 106.4 314.211 107.072 312.451 107.616C310.723 108.128 308.883 108.384 306.931 108.384ZM335.671 107.04C334.903 107.04 334.343 106.784 333.991 106.272C333.639 105.728 333.495 105.056 333.559 104.256C333.591 103.808 333.943 103.168 334.615 102.336C335.287 101.472 336.167 100.464 337.255 99.312C338.343 98.128 339.543 96.864 340.855 95.52C342.199 94.144 343.575 92.752 344.983 91.344C343.223 88.752 341.895 86.672 340.999 85.104C340.135 83.536 339.671 82.304 339.607 81.408C339.543 80.416 339.703 79.616 340.087 79.008C340.503 78.4 341.159 78.096 342.055 78.096C342.567 78.096 343.095 78.336 343.639 78.816C344.215 79.296 344.935 80.176 345.799 81.456C346.695 82.736 347.879 84.544 349.351 86.88C351.559 84.672 353.367 82.88 354.775 81.504C356.215 80.096 357.367 79.008 358.231 78.24C359.127 77.472 359.815 76.944 360.295 76.656C360.807 76.368 361.239 76.224 361.591 76.224C362.359 76.224 362.903 76.496 363.223 77.04C363.575 77.552 363.719 78.224 363.655 79.056C363.591 79.728 363.191 80.544 362.455 81.504C361.751 82.432 360.839 83.456 359.719 84.576C358.599 85.664 357.383 86.8 356.071 87.984C354.791 89.136 353.543 90.272 352.327 91.392C354.311 94.208 356.167 96.672 357.895 98.784C359.655 100.864 361.079 102.592 362.167 103.968C363.255 105.312 363.815 106.304 363.847 106.944C363.911 107.616 363.735 108.144 363.319 108.528C362.935 108.912 362.375 109.104 361.639 109.104C361.223 109.104 360.711 108.96 360.103 108.672C359.495 108.384 358.679 107.792 357.655 106.896C356.663 106 355.383 104.656 353.815 102.864C352.279 101.04 350.359 98.592 348.055 95.52C346.743 96.864 345.431 98.208 344.119 99.552C342.839 100.896 341.623 102.144 340.471 103.296C339.351 104.416 338.359 105.328 337.495 106.032C336.663 106.704 336.055 107.04 335.671 107.04ZM369.889 123.408C368.993 123.408 368.289 123.088 367.777 122.448C367.297 121.84 367.057 120.896 367.057 119.616C367.057 117.856 367.217 115.76 367.537 113.328C367.857 110.896 368.289 108.32 368.833 105.6C369.377 102.88 369.969 100.208 370.609 97.584C371.377 94.576 372.129 91.84 372.865 89.376C373.633 86.912 374.401 84.944 375.169 83.472C375.969 81.968 376.769 81.216 377.569 81.216C378.305 81.216 378.945 81.488 379.489 82.032C380.065 82.544 380.353 83.312 380.353 84.336C380.353 85.072 380.161 86.128 379.777 87.504C379.393 88.848 378.913 90.528 378.337 92.544C379.425 90.752 380.545 88.992 381.697 87.264C382.881 85.536 384.081 83.968 385.297 82.56C386.513 81.152 387.697 80.032 388.849 79.2C390.001 78.368 391.089 77.952 392.113 77.952C393.329 77.952 394.401 78.304 395.329 79.008C396.289 79.712 397.041 80.672 397.585 81.888C398.129 83.104 398.401 84.48 398.401 86.016C398.401 88.864 397.889 91.632 396.865 94.32C395.841 96.976 394.417 99.36 392.593 101.472C390.801 103.584 388.705 105.264 386.305 106.512C383.905 107.728 381.313 108.336 378.529 108.336C377.729 108.336 376.993 108.256 376.321 108.096C375.681 107.968 375.089 107.808 374.545 107.616C374.161 109.664 373.793 111.76 373.441 113.904C373.121 116.08 372.785 118.368 372.433 120.768C372.049 122.528 371.201 123.408 369.889 123.408ZM392.593 83.616C391.889 83.616 390.993 84.096 389.905 85.056C388.849 86.016 387.697 87.28 386.449 88.848C385.201 90.384 383.937 92.064 382.657 93.888C381.409 95.68 380.209 97.44 379.057 99.168C377.937 100.896 376.977 102.4 376.177 103.68C378.609 103.424 380.753 102.784 382.609 101.76C384.465 100.704 386.049 99.424 387.361 97.92C388.673 96.416 389.729 94.832 390.529 93.168C391.361 91.472 391.969 89.824 392.353 88.224C392.737 86.624 392.929 85.232 392.929 84.048C392.929 83.76 392.817 83.616 392.593 83.616ZM413.612 110.4C410.732 110.4 408.46 109.52 406.796 107.76C405.164 105.968 404.348 103.424 404.348 100.128C404.348 98.336 404.588 96.24 405.068 93.84C405.548 91.408 406.172 88.848 406.94 86.16C407.74 83.44 408.588 80.752 409.484 78.096C410.412 75.44 411.324 72.976 412.22 70.704C413.116 68.432 413.9 66.528 414.572 64.992C415.148 63.808 415.964 63.216 417.02 63.216C417.692 63.216 418.236 63.424 418.652 63.84C419.1 64.256 419.324 64.928 419.324 65.856C419.324 66.304 419.1 67.28 418.652 68.784C418.204 70.288 417.612 72.144 416.876 74.352C416.172 76.528 415.404 78.88 414.572 81.408C413.772 83.936 413.004 86.48 412.268 89.04C411.564 91.6 410.988 94.016 410.54 96.288C410.092 98.528 409.868 100.432 409.868 102C409.868 102.64 410.044 103.152 410.396 103.536C410.78 103.92 411.276 104.112 411.884 104.112C413.196 104.112 414.54 103.872 415.916 103.392C417.324 102.912 418.7 102.304 420.044 101.568C421.42 100.832 422.716 100.048 423.932 99.216C425.148 98.384 426.236 97.6 427.196 96.864C428.188 96.096 428.988 95.488 429.596 95.04C430.396 94.432 430.94 94.128 431.228 94.128C432.316 94.128 432.86 94.656 432.86 95.712C432.86 95.968 432.54 96.496 431.9 97.296C431.356 98 430.588 98.896 429.596 99.984C428.604 101.072 427.452 102.224 426.14 103.44C424.86 104.624 423.484 105.744 422.012 106.8C420.572 107.856 419.132 108.72 417.692 109.392C416.252 110.064 414.892 110.4 413.612 110.4ZM437.06 109.584C434.788 109.584 432.964 108.784 431.588 107.184C430.212 105.552 429.524 103.376 429.524 100.656C429.524 99.792 429.636 98.912 429.86 98.016C430.116 97.12 430.42 96.288 430.772 95.52C430.58 95.232 430.42 94.864 430.292 94.416C430.196 93.936 430.148 93.376 430.148 92.736C430.148 90.656 430.516 88.752 431.252 87.024C431.988 85.264 432.98 83.744 434.228 82.464C435.476 81.184 436.852 80.192 438.356 79.488C439.86 78.784 441.38 78.432 442.916 78.432C445.54 78.432 447.684 79.312 449.348 81.072C451.044 82.832 451.892 85.568 451.892 89.28C451.892 91.136 451.604 93.024 451.028 94.944C450.452 96.864 449.668 98.704 448.676 100.464C447.716 102.192 446.596 103.744 445.316 105.12C444.068 106.496 442.724 107.584 441.284 108.384C439.876 109.184 438.468 109.584 437.06 109.584ZM436.292 93.36C436.452 93.712 436.532 94.128 436.532 94.608C436.532 95.088 436.436 95.584 436.244 96.096C436.052 96.608 435.86 97.296 435.668 98.16C435.476 98.992 435.38 100.192 435.38 101.76C435.38 102.176 435.428 102.528 435.524 102.816C435.652 103.072 435.924 103.2 436.34 103.2C437.428 103.2 438.452 102.848 439.412 102.144C440.404 101.44 441.284 100.512 442.052 99.36C442.852 98.208 443.524 96.928 444.068 95.52C444.644 94.08 445.076 92.624 445.364 91.152C445.684 89.648 445.844 88.256 445.844 86.976C445.844 86.144 445.684 85.568 445.364 85.248C445.044 84.928 444.484 84.768 443.684 84.768C442.596 84.768 441.476 85.12 440.324 85.824C439.204 86.496 438.26 87.424 437.492 88.608C436.724 89.76 436.34 91.072 436.34 92.544C436.34 92.832 436.324 93.104 436.292 93.36ZM477.741 82.32C479.501 78.128 481.053 73.808 482.397 69.36C482.653 68.464 483.021 67.776 483.501 67.296C484.013 66.816 484.717 66.576 485.613 66.576C486.349 66.576 486.909 66.8 487.293 67.248C487.677 67.664 487.869 68.24 487.869 68.976C487.869 69.584 487.613 70.672 487.101 72.24C486.589 73.776 485.965 75.728 485.229 78.096C484.493 80.464 483.757 83.2 483.021 86.304C482.285 89.408 481.661 92.816 481.149 96.528C480.637 100.24 480.381 104.208 480.381 108.432C480.381 109.584 480.157 110.528 479.709 111.264C479.293 112.032 478.557 112.416 477.501 112.416C476.349 112.416 475.501 112.016 474.957 111.216C474.445 110.416 474.189 109.392 474.189 108.144C474.189 105.68 474.269 103.632 474.429 102C474.621 100.336 474.813 98.912 475.005 97.728C473.437 100.416 471.773 102.736 470.013 104.688C468.285 106.608 466.621 108.08 465.021 109.104C463.421 110.16 462.045 110.688 460.893 110.688C459.005 110.688 457.469 110.16 456.285 109.104C455.101 108.048 454.509 106.448 454.509 104.304C454.509 102.64 454.909 100.928 455.709 99.168C456.509 97.376 457.565 95.616 458.877 93.888C460.189 92.16 461.629 90.544 463.197 89.04C464.797 87.504 466.397 86.16 467.997 85.008C469.597 83.824 471.085 82.896 472.461 82.224C473.837 81.552 474.957 81.216 475.821 81.216C476.781 81.216 477.421 81.584 477.741 82.32ZM476.637 84.912C476.445 85.04 476.237 85.168 476.013 85.296C475.821 85.392 475.629 85.504 475.437 85.632C474.221 86.4 472.925 87.328 471.549 88.416C470.173 89.472 468.813 90.656 467.469 91.968C466.125 93.248 464.893 94.592 463.773 96C462.685 97.376 461.805 98.752 461.133 100.128C460.493 101.472 460.173 102.768 460.173 104.016C460.173 104.24 460.269 104.4 460.461 104.496C460.653 104.592 460.829 104.64 460.989 104.64C462.109 104.64 463.309 104.144 464.589 103.152C465.901 102.16 467.229 100.784 468.573 99.024C469.949 97.232 471.309 95.136 472.653 92.736C474.029 90.336 475.357 87.728 476.637 84.912ZM496.984 109.632C495 109.632 493.4 108.944 492.184 107.568C490.968 106.16 490.36 103.904 490.36 100.8C490.36 98.816 490.584 96.832 491.032 94.848C491.512 92.832 492.168 90.928 493 89.136C493.864 87.312 494.856 85.696 495.976 84.288C497.128 82.88 498.392 81.776 499.768 80.976C501.144 80.144 502.568 79.728 504.04 79.728C506.536 79.728 508.488 80.4 509.896 81.744C511.304 83.088 512.008 84.8 512.008 86.88C512.008 88.48 511.56 89.936 510.664 91.248C509.8 92.528 508.616 93.68 507.112 94.704C505.608 95.728 503.928 96.656 502.072 97.488C500.216 98.32 498.312 99.072 496.36 99.744C496.2 100.896 496.12 101.92 496.12 102.816C496.12 103.36 496.424 103.632 497.032 103.632C498.472 103.632 500.008 103.408 501.64 102.96C503.304 102.48 504.984 101.872 506.68 101.136C508.376 100.368 510.008 99.584 511.576 98.784C513.144 97.952 514.568 97.168 515.848 96.432C517.16 95.664 518.232 95.056 519.064 94.608C519.928 94.128 520.488 93.888 520.744 93.888C521.448 93.888 521.96 94.096 522.28 94.512C522.6 94.928 522.76 95.376 522.76 95.856C522.76 96.08 522.328 96.576 521.464 97.344C520.632 98.112 519.48 99.024 518.008 100.08C516.568 101.104 514.936 102.176 513.112 103.296C511.32 104.384 509.448 105.424 507.496 106.416C505.576 107.376 503.704 108.144 501.88 108.72C500.088 109.328 498.456 109.632 496.984 109.632ZM497.176 95.472C498.488 94.704 499.784 93.904 501.064 93.072C502.376 92.208 503.464 91.248 504.328 90.192C505.192 89.104 505.624 87.84 505.624 86.4C505.624 85.984 505.512 85.712 505.288 85.584C505.064 85.424 504.744 85.344 504.328 85.344C503.208 85.344 502.184 85.84 501.256 86.832C500.36 87.824 499.56 89.104 498.856 90.672C498.184 92.208 497.624 93.808 497.176 95.472Z"
        fill="white"
    />
</svg>
